<svg width="39" height="24" viewBox="0 0 39 24" fill="none" xmlns="http://www.w3.org/2000/svg">
<g clip-path="url(#clip0_2_15)">
<path d="M24.5402 21.2227H14.0938V2.54004H24.5403L24.5402 21.2227Z" fill="#FF5F00"/>
<path d="M14.7561 11.8816C14.7561 8.09183 16.5392 4.71588 19.3158 2.54028C17.2141 0.891029 14.6145 -0.00407531 11.938 -0.000139665C5.34465 -0.000139665 0 5.31942 0 11.8816C0 18.4438 5.34465 23.7633 11.938 23.7633C14.6146 23.7673 17.2142 22.8722 19.316 21.2229C16.5396 19.0477 14.7561 15.6716 14.7561 11.8816Z" fill="#EB001B"/>
<path d="M38.6334 11.8818C38.6334 18.4439 33.2887 23.7635 26.6954 23.7635C24.0185 23.7674 21.4186 22.8723 19.3164 21.2231C22.0938 19.0475 23.8769 15.6717 23.8769 11.8818C23.8769 8.09179 22.0938 4.71604 19.3164 2.54043C21.4186 0.891231 24.0184 -0.00385374 26.6952 1.24723e-05C33.2886 1.24723e-05 38.6332 5.31957 38.6332 11.8818" fill="#F79E1B"/>
</g>
<defs>
<clipPath id="clip0_2_15">
<rect width="39" height="24" fill="white"/>
</clipPath>
</defs>
</svg>
